<svg width="174" height="144" viewBox="0 0 174 144" fill="none" xmlns="http://www.w3.org/2000/svg">
<rect width="174" height="144" rx="8" fill="#312755"/>
<g clip-path="url(#clip0_32_7194)">
<path d="M111.813 54.2402C111.253 52.1199 109.454 49.9996 106.216 47.6393C103.617 45.759 100.859 44.6788 98.66 44.6788C98.2202 44.6788 97.8204 44.7188 97.4206 44.7989C96.4211 44.9989 95.5416 45.719 94.9819 46.7991C94.3023 48.0793 94.1423 49.7996 94.5821 50.8397C94.742 51.1598 94.9419 51.5598 95.1818 51.9199C93.0629 53.2001 91.8635 53.5601 91.7036 53.6001C97.2207 55.4404 101.818 59.281 104.697 64.2817L104.737 63.8016C104.857 62.4814 105.257 60.9612 105.816 59.401C106.376 59.561 106.936 59.641 107.495 59.641C108.975 59.641 110.254 59.0409 111.053 57.9608C111.853 56.8806 112.173 55.4404 111.813 54.2402Z" fill="#5E12A0"/>
<path d="M106.055 58.2425C109.693 59.2426 111.172 56.4422 110.692 54.562C110.173 52.6817 108.493 50.7614 105.535 48.6011C102.577 46.4408 99.5781 45.5606 97.6591 45.9607C95.7401 46.3608 95.1804 49.2812 95.6601 50.4014C95.86 50.8414 96.2998 51.4815 96.8995 52.2016C96.1399 52.7217 95.4202 53.1218 94.8206 53.4818C98.4986 55.122 101.697 57.6824 104.096 60.8829C104.376 59.8027 104.775 58.8426 105.135 58.0025C105.415 58.0425 105.735 58.1225 106.055 58.2425Z" fill="url(#paint0_radial_32_7194)"/>
<path d="M85.225 97.4492C97.5677 97.4492 107.573 87.4369 107.573 75.0859C107.573 62.7349 97.5677 52.7227 85.225 52.7227C72.8823 52.7227 62.8767 62.7349 62.8767 75.0859C62.8767 87.4369 72.8823 97.4492 85.225 97.4492Z" fill="url(#paint1_radial_32_7194)"/>
<path d="M108.855 52.7203C105.816 49.5198 103.258 48.6797 100.179 47.9996C97.7804 47.4395 98.4201 46.0793 101.339 46.3593C99.9393 45.8793 98.62 45.7592 97.6605 45.9593C95.7415 46.3593 95.1818 49.2798 95.6615 50.3999C95.8614 50.84 96.3012 51.4801 96.9009 52.2002C95.8215 52.9203 94.9019 53.4404 94.1423 53.8404C94.5021 54.0005 94.9419 54.2005 95.4616 54.4805C96.8209 55.2006 98.3002 56.4008 98.3002 56.4008C96.0613 54.4805 96.5411 53.6004 99.6195 51.4401C100.579 50.76 102.338 50.84 103.977 51.6801C105.616 52.5202 107.535 54.6405 107.535 54.6405L105.696 58.1611C105.816 58.2011 105.936 58.2411 106.056 58.2811C107.215 58.6011 108.135 58.5211 108.855 58.2411C109.694 57.721 111.893 55.9607 108.855 52.7203Z" fill="#A98698" fill-opacity="0.6"/>
<path d="M100.138 49.9214C100.937 50.2414 101.977 50.8015 103.256 51.6416C104.775 52.6418 106.095 53.7619 106.934 54.6421C105.535 56.4823 104.615 59.0027 104.056 60.763C104.336 61.163 104.655 61.5631 104.935 61.9631C105.215 60.963 105.695 59.4828 106.335 58.0026C106.494 58.0426 106.694 58.0426 106.894 58.0426C107.374 58.0426 107.934 57.9626 108.373 57.6025C108.693 57.3625 109.053 56.9224 109.013 56.1223C109.013 55.3622 108.413 54.402 107.174 53.2419C106.295 52.4017 105.095 51.4816 103.896 50.6415C100.458 48.3612 98.0588 47.7211 96.9794 48.8012C96.2598 49.5213 96.3397 50.4015 96.5796 51.0415C95.3003 51.8817 94.2208 52.4818 93.5012 52.8818C93.981 53.0418 94.4207 53.2419 94.9005 53.4419C96.1798 52.7618 98.0189 51.6016 100.138 49.9214ZM107.694 55.6422C107.814 55.8423 107.854 56.0423 107.854 56.1623C107.854 56.5223 107.734 56.6424 107.654 56.7224C107.494 56.8424 107.174 56.9224 106.894 56.9224C107.134 56.4423 107.414 56.0423 107.694 55.6422ZM97.819 49.6813C97.9389 49.5613 98.2587 49.4813 98.7785 49.5613C98.3787 49.8814 97.9789 50.1614 97.5791 50.4415C97.5391 50.1614 97.5791 49.8814 97.819 49.6813Z" fill="#5E12A0"/>
<path d="M85.2252 51.3995C72.1521 51.3995 61.5576 62.0011 61.5576 75.083C61.5576 88.1649 72.1521 98.7665 85.2252 98.7665C98.2984 98.7665 108.893 88.1649 108.893 75.083C108.893 62.0011 98.2584 51.3995 85.2252 51.3995ZM85.2252 97.4463C72.8717 97.4463 62.8769 87.4448 62.8769 75.083C62.8769 62.7212 72.8717 52.7197 85.2252 52.7197C97.5788 52.7197 107.574 62.7212 107.574 75.083C107.574 87.4448 97.5388 97.4463 85.2252 97.4463Z" fill="#5E12A0"/>
<path d="M85.225 97.4492C97.5677 97.4492 107.573 87.4369 107.573 75.0859C107.573 62.7349 97.5677 52.7227 85.225 52.7227C72.8823 52.7227 62.8767 62.7349 62.8767 75.0859C62.8767 87.4369 72.8823 97.4492 85.225 97.4492Z" fill="url(#paint2_linear_32_7194)"/>
<path d="M85.0657 94.7295C72.8721 92.7692 64.5964 81.2875 66.5954 69.0857C67.4749 63.685 70.1935 59.0843 74.0315 55.7638C68.4344 59.0043 64.2766 64.6451 63.1572 71.5261C61.1982 83.7279 69.4739 95.2096 81.6275 97.1698C88.4239 98.29 94.9805 96.1697 99.818 92.0091C95.5402 94.4895 90.3429 95.5696 85.0657 94.7295Z" fill="#A98698" fill-opacity="0.6"/>
<path d="M88.785 53.0445C83.1479 52.1243 77.6708 53.4045 73.1931 56.2449C73.1132 56.325 73.0332 56.405 73.0332 56.405C74.7523 55.3648 77.271 54.4447 77.271 54.4447C70.7944 58.2052 68.7954 62.4859 68.7954 62.4859C71.3141 57.6051 78.7102 54.1646 84.5072 53.9246C90.3042 53.6846 94.1022 55.4048 98.7397 59.1254C103.377 62.8859 106.176 70.567 105.896 76.6479C105.656 82.7288 102.458 87.6495 102.458 87.6495C104.657 84.8091 105.976 82.7288 106.816 80.6085C106.975 79.9684 107.135 79.3283 107.215 78.6482C109.214 66.4864 100.979 55.0048 88.785 53.0445Z" fill="url(#paint3_linear_32_7194)"/>
<path d="M106.456 74.8854C106.456 86.6071 96.9412 96.1285 85.2274 96.1285C73.5135 96.1285 63.9585 86.6071 63.9585 74.8854H106.456Z" fill="url(#paint4_linear_32_7194)"/>
<path d="M104.777 74.8854C104.777 86.327 95.7415 95.6884 84.3875 96.1285H85.227C96.9409 96.1285 106.456 86.6071 106.456 74.8854H104.777Z" fill="url(#paint5_linear_32_7194)"/>
<path d="M66.9569 74.8854H63.9585C63.9585 86.6071 73.4735 96.1285 85.1874 96.1285C85.7071 96.1285 86.1869 96.1285 86.6666 96.0885C75.6724 95.2884 66.9569 86.087 66.9569 74.8854Z" fill="url(#paint6_linear_32_7194)"/>
<path d="M106.417 75.0876C106.417 72.6473 102.179 71.2471 96.5417 70.767C92.4638 70.4469 88.346 70.847 83.6284 72.2872C79.5506 73.4874 75.8725 73.2874 73.1939 72.9673C67.237 72.2872 63.9587 72.2072 63.9587 75.0876C63.9587 79.2482 72.4343 84.449 85.1476 82.6487C91.5843 81.7286 94.9025 79.8483 98.7006 78.5681C102.818 77.2079 106.417 77.2479 106.417 75.0876Z" fill="url(#paint7_linear_32_7194)"/>
<path d="M98.0595 67.6828C98.8986 67.6828 99.5787 67.0023 99.5787 66.1626C99.5787 65.3228 98.8986 64.6423 98.0595 64.6423C97.2203 64.6423 96.5403 65.3228 96.5403 66.1626C96.5403 67.0023 97.2203 67.6828 98.0595 67.6828Z" fill="white"/>
<path d="M92.1814 65.001C94.1687 65.001 95.7795 63.3891 95.7795 61.4005C95.7795 59.4118 94.1687 57.7999 92.1814 57.7999C90.194 57.7999 88.5833 59.4118 88.5833 61.4005C88.5833 63.3891 90.194 65.001 92.1814 65.001Z" fill="white"/>
<path d="M103.498 58.5239H103.418C103.179 58.4839 103.019 58.2438 103.059 57.9638C103.418 56.1235 104.938 54.3633 105.018 54.2832C105.178 54.0832 105.497 54.0832 105.657 54.2432C105.857 54.4033 105.857 54.7233 105.697 54.8833C105.657 54.9233 104.258 56.5636 103.938 58.1638C103.898 58.4039 103.698 58.5239 103.498 58.5239Z" fill="url(#paint8_linear_32_7194)"/>
<path d="M98.6578 44.6801C100.897 44.6801 103.655 45.7603 106.214 47.6405C109.452 50.0009 111.251 52.0812 111.811 54.2415C112.131 55.4817 111.851 56.8819 111.051 57.922C110.212 59.0022 108.972 59.6023 107.493 59.6023C106.973 59.6023 106.414 59.5223 105.814 59.3622C105.454 60.2824 105.174 61.2025 104.974 62.0826C107.413 65.8032 108.852 70.2838 108.852 75.0845C108.852 88.1665 98.258 98.768 85.1848 98.768C72.1117 98.768 61.5572 88.1665 61.5572 75.0845C61.5572 62.0026 72.1517 51.4011 85.2248 51.4011C88.1033 51.4011 90.8619 51.9212 93.4205 52.8813C93.9003 52.6413 94.5 52.3212 95.1796 51.9212C94.9397 51.5611 94.6999 51.2011 94.5799 50.841C94.1402 49.7608 94.3001 48.0806 94.9797 46.8004C95.5394 45.7603 96.379 45.0402 97.4184 44.8001C97.7782 44.7201 98.218 44.6801 98.6578 44.6801ZM98.6578 44C98.178 44 97.6983 44.04 97.2585 44.16C96.0592 44.4401 95.0197 45.2402 94.34 46.5204C93.5804 48.0006 93.3806 49.9209 93.9003 51.161C93.9802 51.3211 94.0602 51.5211 94.1801 51.7211C93.9003 51.8812 93.6204 52.0412 93.3406 52.1612C90.702 51.2411 87.9834 50.761 85.1848 50.761C81.9066 50.761 78.7082 51.4011 75.7098 52.6813C72.7913 53.9215 70.1927 55.6817 67.9539 57.922C65.715 60.1624 63.956 62.7627 62.7166 65.6832C61.4373 68.6836 60.7976 71.8841 60.7976 75.1646C60.7976 78.445 61.4373 81.6455 62.7166 84.6459C63.956 87.5664 65.715 90.1667 67.9539 92.4071C70.1927 94.6474 72.7913 96.4077 75.7098 97.6478C78.7082 98.928 81.9066 99.5681 85.1848 99.5681C88.4631 99.5681 91.6615 98.928 94.6599 97.6478C97.5784 96.4077 100.177 94.6474 102.416 92.4071C104.655 90.1667 106.414 87.5664 107.653 84.6459C108.932 81.6455 109.572 78.445 109.572 75.1646C109.572 70.4839 108.253 65.9632 105.734 62.0426C105.854 61.4425 106.054 60.8425 106.254 60.2424C106.654 60.3224 107.093 60.3624 107.493 60.3624C109.172 60.3624 110.652 59.6823 111.611 58.4021C112.531 57.2019 112.89 55.5217 112.491 54.1215C111.851 51.8011 110.012 49.6008 106.614 47.1605C103.935 45.1202 101.017 44 98.6578 44Z" fill="white"/>
<path d="M86.7058 93.8074C87.1695 93.8074 87.5453 93.4314 87.5453 92.9673C87.5453 92.5033 87.1695 92.1272 86.7058 92.1272C86.242 92.1272 85.8662 92.5033 85.8662 92.9673C85.8662 93.4314 86.242 93.8074 86.7058 93.8074Z" fill="white" fill-opacity="0.2"/>
<path d="M86.226 93.4885C85.9062 93.1685 85.9062 92.6084 86.226 92.2884C86.266 92.2483 86.346 92.2083 86.3859 92.1683C86.266 92.2083 86.186 92.2884 86.1061 92.3684C85.7863 92.6884 85.7863 93.2485 86.1061 93.5685C86.3859 93.8486 86.7857 93.8886 87.1455 93.6886C86.8257 93.8086 86.4659 93.7286 86.226 93.4885Z" fill="url(#paint9_linear_32_7194)"/>
<path d="M86.9861 92.685C87.0744 92.685 87.146 92.6134 87.146 92.525C87.146 92.4366 87.0744 92.365 86.9861 92.365C86.8977 92.365 86.8262 92.4366 86.8262 92.525C86.8262 92.6134 86.8977 92.685 86.9861 92.685Z" fill="white" fill-opacity="0.3"/>
<path d="M91.8613 93.21C92.325 93.21 92.7009 92.834 92.7009 92.3699C92.7009 91.9058 92.325 91.5298 91.8613 91.5298C91.3975 91.5298 91.0217 91.9058 91.0217 92.3699C91.0217 92.834 91.3975 93.21 91.8613 93.21Z" fill="white" fill-opacity="0.2"/>
<path d="M91.3815 92.8844C91.0617 92.5644 91.0617 92.0043 91.3815 91.6842C91.4215 91.6442 91.5015 91.6042 91.5415 91.5642C91.4215 91.6042 91.3416 91.6842 91.2616 91.7642C90.9418 92.0843 90.9418 92.6444 91.2616 92.9644C91.5415 93.2445 91.9412 93.2845 92.3011 93.0844C91.9812 93.2044 91.6214 93.1244 91.3815 92.8844Z" fill="url(#paint10_linear_32_7194)"/>
<path d="M92.1416 92.0879C92.23 92.0879 92.3015 92.0163 92.3015 91.9279C92.3015 91.8394 92.23 91.7678 92.1416 91.7678C92.0533 91.7678 91.9817 91.8394 91.9817 91.9279C91.9817 92.0163 92.0533 92.0879 92.1416 92.0879Z" fill="white" fill-opacity="0.3"/>
<path d="M83.7469 91.7684C84.3649 91.7684 84.8663 91.2667 84.8663 90.6482C84.8663 90.0297 84.3649 89.5281 83.7469 89.5281C83.1288 89.5281 82.6274 90.0297 82.6274 90.6482C82.6274 91.2667 83.1288 91.7684 83.7469 91.7684Z" fill="white" fill-opacity="0.2"/>
<path d="M83.1067 91.3687C82.6669 90.9287 82.6669 90.2086 83.1067 89.7685C83.1866 89.6885 83.2666 89.6485 83.3466 89.5685C83.1866 89.6085 83.0667 89.6885 82.9468 89.8085C82.507 90.2486 82.507 90.9687 82.9468 91.4088C83.3066 91.7688 83.8663 91.8488 84.3061 91.6088C83.9063 91.7688 83.4265 91.6888 83.1067 91.3687Z" fill="url(#paint11_linear_32_7194)"/>
<path d="M84.1459 90.3264C84.2782 90.3264 84.3858 90.2188 84.3858 90.0863C84.3858 89.9539 84.2782 89.8463 84.1459 89.8463C84.0136 89.8463 83.906 89.9539 83.906 90.0863C83.906 90.2188 84.0136 90.3264 84.1459 90.3264Z" fill="white" fill-opacity="0.3"/>
<path d="M89.5838 91.2047C90.2018 91.2047 90.7032 90.703 90.7032 90.0845C90.7032 89.466 90.2018 88.9644 89.5838 88.9644C88.9657 88.9644 88.4644 89.466 88.4644 90.0845C88.4644 90.703 88.9657 91.2047 89.5838 91.2047Z" fill="white" fill-opacity="0.2"/>
<path d="M88.9438 90.8059C88.5041 90.3658 88.5041 89.6457 88.9438 89.2056C89.0238 89.1256 89.1038 89.0856 89.1837 89.0056C89.0238 89.0456 88.9039 89.1256 88.7839 89.2456C88.3442 89.6857 88.3442 90.4058 88.7839 90.8459C89.1437 91.2059 89.7034 91.2859 90.1432 91.0459C89.7434 91.2059 89.2637 91.1259 88.9438 90.8059Z" fill="url(#paint12_linear_32_7194)"/>
<path d="M89.983 89.7635C90.1154 89.7635 90.2229 89.6559 90.2229 89.5235C90.2229 89.3911 90.1154 89.2834 89.983 89.2834C89.8507 89.2834 89.7432 89.3911 89.7432 89.5235C89.7432 89.6559 89.8507 89.7635 89.983 89.7635Z" fill="white" fill-opacity="0.3"/>
<path d="M78.9885 91.3688C80.0043 91.3688 80.8275 90.5451 80.8275 89.5285C80.8275 88.5124 80.0043 87.6882 78.9885 87.6882C77.973 87.6882 77.1494 88.5124 77.1494 89.5285C77.1494 90.5451 77.973 91.3688 78.9885 91.3688Z" fill="white" fill-opacity="0.2"/>
<path d="M77.9493 90.6838C77.2296 89.9637 77.2296 88.8035 77.9493 88.0834C78.0692 87.9634 78.1891 87.8834 78.3491 87.8033C78.1092 87.8834 77.9093 88.0434 77.7094 88.2034C76.9898 88.9235 76.9898 90.0837 77.7094 90.8038C78.3091 91.4039 79.2286 91.5239 79.9482 91.0838C79.2686 91.3639 78.469 91.2439 77.9493 90.6838Z" fill="url(#paint13_linear_32_7194)"/>
<path d="M79.6283 88.9639C79.849 88.9639 80.0281 88.7847 80.0281 88.5639C80.0281 88.343 79.849 88.1638 79.6283 88.1638C79.4076 88.1638 79.2285 88.343 79.2285 88.5639C79.2285 88.7847 79.4076 88.9639 79.6283 88.9639Z" fill="white" fill-opacity="0.3"/>
<path d="M95.4216 86.8474C96.4374 86.8474 97.2606 86.0237 97.2606 85.0071C97.2606 83.991 96.4374 83.1669 95.4216 83.1669C94.4061 83.1669 93.5825 83.991 93.5825 85.0071C93.5825 86.0237 94.4061 86.8474 95.4216 86.8474Z" fill="white" fill-opacity="0.2"/>
<path d="M94.3418 86.1633C93.6222 85.4432 93.6222 84.283 94.3418 83.5629C94.4618 83.4429 94.5817 83.3628 94.7416 83.2828C94.5018 83.3628 94.3019 83.5229 94.102 83.6829C93.3823 84.403 93.3823 85.5632 94.102 86.2833C94.7017 86.8834 95.6212 87.0034 96.3408 86.5633C95.6612 86.8434 94.9016 86.7233 94.3418 86.1633Z" fill="url(#paint14_linear_32_7194)"/>
<path d="M96.0614 84.4427C96.2821 84.4427 96.4612 84.2635 96.4612 84.0426C96.4612 83.8218 96.2821 83.6426 96.0614 83.6426C95.8407 83.6426 95.6616 83.8218 95.6616 84.0426C95.6616 84.2635 95.8407 84.4427 96.0614 84.4427Z" fill="white" fill-opacity="0.3"/>
</g>
<defs>
<radialGradient id="paint0_radial_32_7194" cx="0" cy="0" r="1" gradientUnits="userSpaceOnUse" gradientTransform="translate(109.963 52.0416) scale(17.8684 17.8804)">
<stop stop-color="#FFEAFF" stop-opacity="0.6"/>
<stop offset="0.68" stop-color="#A087C9"/>
<stop offset="1" stop-color="#10002F"/>
</radialGradient>
<radialGradient id="paint1_radial_32_7194" cx="0" cy="0" r="1" gradientUnits="userSpaceOnUse" gradientTransform="translate(100.021 59.6682) scale(43.7175 43.7468)">
<stop stop-color="#FFEAFF" stop-opacity="0.6"/>
<stop offset="0.68" stop-color="#A087C9"/>
<stop offset="1" stop-color="#10002F"/>
</radialGradient>
<linearGradient id="paint2_linear_32_7194" x1="81.6402" y1="97.1319" x2="88.7976" y2="53.0042" gradientUnits="userSpaceOnUse">
<stop stop-color="#81FFFF" stop-opacity="0.6"/>
<stop offset="0.62" stop-color="white" stop-opacity="0"/>
<stop offset="1" stop-color="white" stop-opacity="0"/>
</linearGradient>
<linearGradient id="paint3_linear_32_7194" x1="100.977" y1="59.9001" x2="82.4853" y2="76.855" gradientUnits="userSpaceOnUse">
<stop stop-color="white" stop-opacity="0.6"/>
<stop offset="0.29" stop-color="white" stop-opacity="0.6"/>
<stop offset="0.78" stop-color="white" stop-opacity="0"/>
<stop offset="1" stop-color="white" stop-opacity="0"/>
</linearGradient>
<linearGradient id="paint4_linear_32_7194" x1="63.9765" y1="85.4945" x2="106.446" y2="85.4945" gradientUnits="userSpaceOnUse">
<stop stop-color="#0002E9"/>
<stop offset="1" stop-color="#FF00C7"/>
</linearGradient>
<linearGradient id="paint5_linear_32_7194" x1="108.456" y1="76.7494" x2="85.3254" y2="98.5946" gradientUnits="userSpaceOnUse">
<stop stop-color="white" stop-opacity="0.6"/>
<stop offset="0.29" stop-color="white" stop-opacity="0.6"/>
<stop offset="0.78" stop-color="white" stop-opacity="0"/>
<stop offset="1" stop-color="white" stop-opacity="0"/>
</linearGradient>
<linearGradient id="paint6_linear_32_7194" x1="63.9765" y1="85.4945" x2="86.6974" y2="85.4945" gradientUnits="userSpaceOnUse">
<stop stop-color="#000292" stop-opacity="0.7"/>
<stop offset="1" stop-color="#7D00C7" stop-opacity="0.7"/>
</linearGradient>
<linearGradient id="paint7_linear_32_7194" x1="64.0052" y1="76.8524" x2="106.418" y2="76.8524" gradientUnits="userSpaceOnUse">
<stop stop-color="#000292"/>
<stop offset="1" stop-color="#BE00C7"/>
</linearGradient>
<linearGradient id="paint8_linear_32_7194" x1="105.722" y1="54.0884" x2="102.671" y2="59.0433" gradientUnits="userSpaceOnUse">
<stop stop-color="white" stop-opacity="0.6"/>
<stop offset="0.29" stop-color="white" stop-opacity="0.6"/>
<stop offset="0.78" stop-color="white" stop-opacity="0"/>
<stop offset="1" stop-color="white" stop-opacity="0"/>
</linearGradient>
<linearGradient id="paint9_linear_32_7194" x1="85.861" y1="92.9781" x2="87.1308" y2="92.9781" gradientUnits="userSpaceOnUse">
<stop stop-color="white" stop-opacity="0.6"/>
<stop offset="0.29" stop-color="white" stop-opacity="0.6"/>
<stop offset="0.78" stop-color="white" stop-opacity="0"/>
<stop offset="1" stop-color="white" stop-opacity="0"/>
</linearGradient>
<linearGradient id="paint10_linear_32_7194" x1="90.9992" y1="92.3723" x2="92.2691" y2="92.3723" gradientUnits="userSpaceOnUse">
<stop stop-color="white" stop-opacity="0.6"/>
<stop offset="0.29" stop-color="white" stop-opacity="0.6"/>
<stop offset="0.78" stop-color="white" stop-opacity="0"/>
<stop offset="1" stop-color="white" stop-opacity="0"/>
</linearGradient>
<linearGradient id="paint11_linear_32_7194" x1="82.6158" y1="90.683" x2="84.3073" y2="90.683" gradientUnits="userSpaceOnUse">
<stop stop-color="white" stop-opacity="0.6"/>
<stop offset="0.29" stop-color="white" stop-opacity="0.6"/>
<stop offset="0.78" stop-color="white" stop-opacity="0"/>
<stop offset="1" stop-color="white" stop-opacity="0"/>
</linearGradient>
<linearGradient id="paint12_linear_32_7194" x1="88.4489" y1="90.1126" x2="90.1404" y2="90.1126" gradientUnits="userSpaceOnUse">
<stop stop-color="white" stop-opacity="0.6"/>
<stop offset="0.29" stop-color="white" stop-opacity="0.6"/>
<stop offset="0.78" stop-color="white" stop-opacity="0"/>
<stop offset="1" stop-color="white" stop-opacity="0"/>
</linearGradient>
<linearGradient id="paint13_linear_32_7194" x1="77.1513" y1="89.5704" x2="79.9136" y2="89.5704" gradientUnits="userSpaceOnUse">
<stop stop-color="white" stop-opacity="0.6"/>
<stop offset="0.29" stop-color="white" stop-opacity="0.6"/>
<stop offset="0.78" stop-color="white" stop-opacity="0"/>
<stop offset="1" stop-color="white" stop-opacity="0"/>
</linearGradient>
<linearGradient id="paint14_linear_32_7194" x1="93.5592" y1="85.0487" x2="96.3215" y2="85.0487" gradientUnits="userSpaceOnUse">
<stop stop-color="white" stop-opacity="0.6"/>
<stop offset="0.29" stop-color="white" stop-opacity="0.6"/>
<stop offset="0.78" stop-color="white" stop-opacity="0"/>
<stop offset="1" stop-color="white" stop-opacity="0"/>
</linearGradient>
<clipPath id="clip0_32_7194">
<rect width="55.5709" height="55.6081" fill="white" transform="translate(59 44)"/>
</clipPath>
</defs>
</svg>
