<svg width="48" height="33" viewBox="0 0 48 33" fill="none" xmlns="http://www.w3.org/2000/svg">
<path d="M6.93164 16.7157L43.8926 8.4798L47.4783 24.0954L10.5175 32.3312L6.93164 16.7157Z" fill="#9AF6C1"/>
<path d="M17.1782 30.0724L15.5325 30.4391L13.5967 22.0091L15.3446 21.6196L16.1456 25.1078C16.2614 24.8158 16.4725 24.5571 16.7787 24.3322C17.0908 24.0981 17.4512 23.9355 17.8598 23.8445C18.3894 23.7265 18.8763 23.7512 19.3204 23.9186C19.772 24.0844 20.156 24.371 20.4723 24.7783C20.7885 25.1859 21.0169 25.6952 21.1572 26.3064C21.289 26.8802 21.2881 27.4134 21.1545 27.9054C21.0268 28.3881 20.7822 28.7952 20.4209 29.1264C20.067 29.4562 19.6215 29.6808 19.0843 29.8005C18.6908 29.8881 18.3134 29.8899 17.9521 29.8059C17.5967 29.7128 17.3142 29.5564 17.1047 29.3365L17.1782 30.0724ZM16.6422 27.2183C16.7055 27.4942 16.8187 27.7276 16.9818 27.9185C17.1508 28.1002 17.3512 28.2278 17.5829 28.3017C17.8204 28.3662 18.0754 28.3682 18.3477 28.3074C18.6277 28.245 18.8524 28.1323 19.0217 27.9692C19.1986 27.8045 19.3161 27.606 19.3741 27.3737C19.4397 27.1395 19.4408 26.8847 19.3774 26.6091C19.3141 26.3333 19.2017 26.1035 19.0403 25.9203C18.8865 25.7351 18.6937 25.6058 18.462 25.5319C18.2379 25.4565 17.9859 25.4499 17.7059 25.5124C17.4335 25.573 17.2051 25.6866 17.0206 25.853C16.842 26.0104 16.7161 26.2069 16.643 26.4426C16.5774 26.6766 16.5771 26.9351 16.6422 27.2183Z" fill="#27104A"/>
<path d="M21.8407 26.0836C21.7055 25.4948 21.7198 24.951 21.8837 24.4523C22.0534 23.9444 22.3445 23.5152 22.7572 23.1647C23.1774 22.8125 23.6901 22.569 24.2955 22.4341C24.9008 22.2992 25.4662 22.3025 25.992 22.4439C26.5175 22.5854 26.964 22.8502 27.3315 23.2384C27.705 23.6174 27.9592 24.1014 28.0945 24.6902C28.2297 25.279 28.2115 25.8238 28.0402 26.3242C27.8762 26.8229 27.588 27.2475 27.1755 27.5982C26.7627 27.9486 26.2537 28.1912 25.6485 28.3261C25.0432 28.4611 24.4739 28.4586 23.9407 28.3187C23.4151 28.1774 22.9656 27.9171 22.5923 27.5381C22.2264 27.1573 21.9759 26.6724 21.8407 26.0836ZM23.5974 25.6805C23.6624 25.9637 23.7765 26.2008 23.9396 26.3917C24.1086 26.5734 24.3089 26.7012 24.5406 26.7749C24.7706 26.8411 25.0217 26.8438 25.2942 26.7833C25.5665 26.7227 25.792 26.6136 25.9707 26.4562C26.1477 26.2915 26.269 26.092 26.3345 25.858C26.3982 25.6167 26.3977 25.3542 26.3327 25.0709C26.2677 24.7877 26.1545 24.5545 25.993 24.3711C25.8315 24.1877 25.636 24.0628 25.406 23.9965C25.1742 23.9228 24.9222 23.9163 24.6498 23.977C24.3774 24.0377 24.1527 24.1504 23.9758 24.3152C23.7972 24.4725 23.6713 24.669 23.5982 24.9047C23.5326 25.1387 23.5323 25.3973 23.5974 25.6805Z" fill="#27104A"/>
<path d="M31.4995 27.0342C30.9017 27.1674 30.3882 27.1133 29.959 26.8722C29.5355 26.6217 29.2615 26.2245 29.1365 25.6802C29.0182 25.166 29.102 24.7163 29.3875 24.3316C29.6805 23.9451 30.1615 23.6498 30.8305 23.4459L32.3912 22.9689L32.3707 22.8794C32.328 22.6931 32.255 22.5487 32.152 22.4463C32.0472 22.3365 31.916 22.2677 31.7585 22.2402C31.607 22.2034 31.4252 22.2087 31.2135 22.2559C30.8427 22.3385 30.5742 22.4688 30.4085 22.6468C30.25 22.8231 30.2 23.038 30.2582 23.2914L28.8055 23.6151C28.7077 23.1903 28.7327 22.7969 28.8802 22.4349C29.028 22.073 29.2825 21.7616 29.6442 21.5008C30.0135 21.2383 30.4665 21.0472 31.0037 20.9275C31.5562 20.8044 32.0437 20.7977 32.4665 20.9072C32.897 21.015 33.2532 21.2333 33.5357 21.5621C33.8255 21.8893 34.032 22.3212 34.1552 22.8578L34.905 26.1225L33.3615 26.4666L33.0785 25.7539C33.046 26.0275 32.879 26.288 32.578 26.5353C32.2825 26.7734 31.923 26.9396 31.4995 27.0342ZM31.8195 25.6231C32.1525 25.549 32.407 25.4098 32.5827 25.2062C32.757 24.9949 32.8075 24.7291 32.7337 24.4086L32.6645 24.1067L31.7972 24.3823C31.4257 24.4964 31.1715 24.6196 31.035 24.7518C30.9042 24.8752 30.8592 25.0261 30.9005 25.2049C30.9465 25.4061 31.0452 25.5411 31.196 25.6093C31.347 25.6775 31.5547 25.6819 31.8195 25.6231Z" fill="#27104A"/>
<path d="M38.7797 19.3826L39.1519 21.0037L38.5959 21.1277C38.0964 21.239 37.7304 21.4459 37.4977 21.7485C37.2724 22.0494 37.2232 22.4756 37.3497 23.0272L37.9069 25.4533L36.1589 25.8429L34.8779 20.2638L36.5237 19.8971L36.9344 21.063L36.7757 21.0984C36.7657 20.7089 36.8659 20.3653 37.0759 20.0678C37.2917 19.7611 37.6304 19.5564 38.0922 19.4536C38.1979 19.4299 38.3057 19.4138 38.4149 19.4051C38.5302 19.3873 38.6517 19.3798 38.7797 19.3826Z" fill="#27104A"/>
<path d="M43.1974 24.4273C42.6526 24.5487 42.1524 24.5348 41.6966 24.3857C41.2409 24.2365 40.8499 23.9711 40.5236 23.5893C40.2031 23.1985 39.9754 22.7086 39.8401 22.1198C39.7031 21.5235 39.6969 20.9765 39.8211 20.4787C39.9436 19.9734 40.1841 19.5477 40.5419 19.2016C40.9076 18.8537 41.3779 18.6158 41.9529 18.4876C42.3084 18.4084 42.6521 18.3984 42.9839 18.4576C43.3234 18.5153 43.6001 18.6298 43.8144 18.8014L43.0444 15.4473L44.7921 15.0579L46.7279 23.4879L45.0821 23.8546L44.8271 23.1593C44.7339 23.4464 44.5399 23.7091 44.2446 23.9472C43.9551 24.1763 43.6061 24.3363 43.1974 24.4273ZM43.2554 22.7573C43.5279 22.6966 43.7534 22.5876 43.9319 22.4303C44.1164 22.2638 44.2414 22.0636 44.3071 21.8296C44.3784 21.5865 44.3826 21.327 44.3191 21.0512C44.2541 20.768 44.1371 20.5355 43.9681 20.3538C43.8066 20.1704 43.6071 20.0464 43.3696 19.9818C43.1381 19.908 42.8859 19.9015 42.6136 19.9622C42.3411 20.0229 42.1166 20.1356 41.9396 20.3004C41.7626 20.4652 41.6414 20.6646 41.5759 20.8986C41.5179 21.1309 41.5206 21.3849 41.5839 21.6607C41.6471 21.9365 41.7559 22.1669 41.9096 22.352C42.0711 22.5355 42.2676 22.664 42.4994 22.7377C42.7311 22.8115 42.9831 22.818 43.2554 22.7573Z" fill="#27104A"/>
<path d="M1.06152 2.6804L39.0599 2.41449L39.1754 18.4242L1.17698 18.6901L1.06152 2.6804Z" fill="#9AF6C1"/>
<path d="M5.82015 11.5234C5.81645 11.0114 5.94895 10.5596 6.21765 10.1679C6.4863 9.76867 6.85642 9.45657 7.32802 9.23166C7.80735 8.99903 8.35342 8.88058 8.96627 8.87629C9.58687 8.87196 10.1229 8.97519 10.5744 9.18602C11.0258 9.39683 11.3732 9.69627 11.6165 10.0843C11.8676 10.4723 11.995 10.9337 11.9989 11.4687L10.1254 11.4818C10.1233 11.1838 10.0169 10.9514 9.80625 10.7847C9.59552 10.6105 9.31175 10.5246 8.9549 10.5271C8.57477 10.5297 8.26892 10.6121 8.03737 10.7742C7.81355 10.9363 7.70267 11.1587 7.70472 11.4414C7.70657 11.7012 7.77782 11.8994 7.91847 12.036C8.0591 12.1726 8.2809 12.2704 8.58387 12.3294L9.8774 12.584C10.6465 12.7314 11.2186 12.9949 11.5937 13.3744C11.9688 13.7462 12.1587 14.2684 12.1636 14.9409C12.1675 15.4834 12.0352 15.962 11.7666 16.3765C11.498 16.7834 11.1163 17.0994 10.6214 17.3245C10.1343 17.5495 9.56105 17.6644 8.90167 17.669C8.26555 17.6734 7.70625 17.5703 7.22372 17.3597C6.74897 17.1491 6.37832 16.8498 6.11177 16.4619C5.8529 16.0664 5.72157 15.6049 5.71777 15.0777L7.5912 15.0646C7.5934 15.3702 7.7076 15.6063 7.93377 15.7729C8.15995 15.9394 8.4825 16.0212 8.9014 16.0183C9.32805 16.0153 9.66495 15.9365 9.9121 15.7819C10.1592 15.6197 10.2817 15.4049 10.2798 15.1374C10.2781 14.9005 10.2147 14.7176 10.0897 14.5885C9.97237 14.4594 9.77002 14.3691 9.48262 14.3177L8.16582 14.0632C7.39672 13.9158 6.81282 13.6294 6.4141 13.2043C6.02315 12.7791 5.82515 12.2188 5.82015 11.5234Z" fill="#27104A"/>
<path d="M17.0327 11.7313L18.8246 11.7188L18.866 17.4501L17.1787 17.4619L17.0577 16.8208C16.881 17.0589 16.6264 17.2518 16.2939 17.3993C15.9691 17.5468 15.6322 17.6217 15.2831 17.6242C14.6237 17.6288 14.0986 17.43 13.7078 17.0276C13.3247 16.6177 13.1306 16.0611 13.1256 15.3581L13.0996 11.7589L14.8916 11.7463L14.9129 14.7037C14.9163 15.1698 15.0041 15.5131 15.1764 15.7335C15.3486 15.9463 15.617 16.0514 15.9816 16.0489C16.3695 16.0461 16.6441 15.941 16.8055 15.7336C16.9746 15.5184 17.0575 15.1778 17.0542 14.7116L17.0327 11.7313Z" fill="#27104A"/>
<path d="M20.2301 20.1919L20.1689 11.7096L21.8562 11.6978L21.9543 12.3964C22.1153 12.1278 22.3659 11.9121 22.706 11.7492C23.0462 11.5863 23.4219 11.5035 23.833 11.5006C24.376 11.4968 24.854 11.6119 25.2669 11.8459C25.6797 12.0799 26.0042 12.4177 26.2399 12.8593C26.4759 13.2933 26.5959 13.8197 26.6004 14.4387C26.6049 15.0424 26.5002 15.5819 26.2864 16.0572C26.0802 16.5248 25.7727 16.8938 25.3634 17.1641C24.9619 17.4344 24.4703 17.5716 23.8885 17.5757C23.4851 17.5785 23.1122 17.5123 22.7699 17.3771C22.4276 17.242 22.1703 17.068 21.9981 16.8552L22.0221 20.1794L20.2301 20.1919ZM21.9932 14.5627C21.9952 14.8454 22.0552 15.0972 22.1732 15.318C22.2989 15.5311 22.4669 15.698 22.6772 15.8188C22.8952 15.9319 23.1439 15.9875 23.4232 15.9855C23.7102 15.9835 23.9541 15.9207 24.1549 15.797C24.3635 15.6733 24.5213 15.504 24.6284 15.2893C24.7432 15.0745 24.7996 14.8258 24.7975 14.543C24.7955 14.2603 24.7355 14.0123 24.6176 13.7992C24.5075 13.586 24.3472 13.419 24.1369 13.2982C23.9343 13.1773 23.6895 13.1179 23.4025 13.1199C23.1232 13.1219 22.8754 13.1847 22.6591 13.3085C22.4505 13.4246 22.2849 13.5901 22.1623 13.8049C22.0475 14.0197 21.9911 14.2723 21.9932 14.5627Z" fill="#27104A"/>
<path d="M30.354 17.5188C29.7722 17.5229 29.2515 17.3966 28.792 17.14C28.3402 16.8833 27.9807 16.5305 27.7137 16.0815C27.4545 15.6247 27.3227 15.1022 27.3185 14.5138C27.3142 13.9177 27.4345 13.3934 27.6795 12.9408C27.9322 12.4805 28.2825 12.1189 28.7307 11.8559C29.1787 11.593 29.6937 11.4594 30.2755 11.4554C30.8882 11.4511 31.4167 11.5735 31.8607 11.8226C32.3047 12.064 32.6485 12.4131 32.8922 12.8699C33.136 13.3191 33.2602 13.857 33.2647 14.4836L33.268 14.9307L28.2645 14.9886L28.28 13.8995L31.48 13.8771C31.4777 13.5715 31.3712 13.3315 31.1605 13.1572C30.9497 12.9752 30.662 12.8856 30.2975 12.8881C29.995 12.8902 29.747 12.9493 29.554 13.0653C29.3685 13.1812 29.2302 13.3617 29.139 13.6069C29.0475 13.8445 29.0032 14.1505 29.006 14.5249C29.0097 15.0598 29.1212 15.4564 29.3402 15.7147C29.5672 15.9653 29.9132 16.089 30.3787 16.0857C30.72 16.0833 31.0027 16.024 31.227 15.9079C31.451 15.7917 31.5935 15.6302 31.654 15.4234L33.2947 15.4119C33.1985 16.0469 32.884 16.5573 32.3515 16.9431C31.819 17.3213 31.1532 17.5132 30.354 17.5188Z" fill="#27104A"/>
<path d="M38.3084 11.5827L38.3204 13.2448L37.7504 13.2487C37.2384 13.2523 36.8359 13.3774 36.5427 13.624C36.2574 13.8706 36.1169 14.2766 36.1209 14.8421L36.1389 17.3294L34.3469 17.342L34.3057 11.6222L35.9929 11.6103L36.1414 12.8359L35.9784 12.837C36.0534 12.4544 36.2257 12.1398 36.4954 11.8934C36.7729 11.6393 37.1482 11.5106 37.6214 11.5073C37.7299 11.5065 37.8387 11.5134 37.9474 11.5279C38.0637 11.5347 38.1842 11.553 38.3084 11.5827Z" fill="#27104A"/>
</svg>
